<svg version="1.1" id="Layer_1" xmlns="http://www.w3.org/2000/svg" xmlns:xlink="http://www.w3.org/1999/xlink" x="0px" y="0px"
	 width="100%" viewBox="0 0 512 512" enable-background="new 0 0 512 512" xml:space="preserve">
<path fill="#000000" opacity="1.000000" stroke="none" 
	d="
M513.000000,196.000000 
	C513.000000,301.974243 513.000000,407.448486 513.000000,512.961365 
	C342.400757,512.961365 171.801483,512.961365 1.101111,512.961365 
	C1.101111,342.442444 1.101111,171.884827 1.101111,1.163595 
	C171.666534,1.163595 342.333252,1.163595 513.000000,1.163595 
	C513.000000,65.865143 513.000000,130.682571 513.000000,196.000000 
M280.077179,64.982529 
	C278.071075,64.946022 276.065002,64.909515 273.949829,64.166557 
	C272.434357,58.317326 268.546387,56.679550 262.753082,56.896175 
	C252.623413,57.274956 242.469315,56.976158 232.325623,57.012394 
	C226.307190,57.033890 224.194000,58.851463 222.057251,64.985924 
	C220.054184,64.944786 218.051117,64.903648 215.712112,64.238014 
	C214.424728,58.623821 210.954361,56.830902 205.221695,56.889999 
	C180.064987,57.149315 154.904099,56.999657 129.744720,57.002792 
	C115.477676,57.004574 104.028954,65.065094 98.992889,78.479889 
	C91.497452,98.445808 84.028648,118.422935 76.338577,138.314133 
	C71.461960,150.928024 68.260178,163.558823 68.776436,177.423477 
	C69.612823,199.885818 69.001152,222.402039 69.001907,244.895523 
	C69.002205,253.721588 69.003479,253.721588 76.983513,257.885193 
	C76.967339,260.248627 76.951172,262.612091 76.169334,264.996918 
	C70.933090,265.943085 69.007286,268.263763 69.006332,273.790741 
	C68.997444,325.107727 68.987999,376.424744 69.009560,427.741730 
	C69.015839,442.685547 83.381241,456.990814 98.370300,456.992523 
	C204.169952,457.004517 309.969604,457.005951 415.769257,456.990753 
	C431.028687,456.988556 444.981964,442.979218 444.991730,427.680389 
	C445.014404,392.191681 445.002533,356.702972 444.995880,321.214264 
	C444.994690,315.029327 443.419586,313.206146 437.011719,311.181976 
	C437.047668,310.133545 437.083649,309.085083 437.841156,307.944733 
	C443.188538,306.754730 445.143311,303.666168 445.116516,297.987427 
	C444.904022,253.009018 445.008301,208.029144 444.967041,163.049789 
	C444.965118,160.930984 444.912598,158.664246 444.200043,156.716492 
	C434.829865,131.102966 425.352295,105.528694 415.868317,79.956932 
	C410.251678,64.812798 398.596588,56.746376 382.995880,56.909161 
	C352.679749,57.225491 322.357971,57.000168 292.038513,57.002792 
	C284.259247,57.003464 283.695618,57.409378 280.077179,64.982529 
z"/>
<path fill="#F8DB94" opacity="1.000000" stroke="none" 
	d="
M76.934998,264.975525 
	C76.951172,262.612091 76.967339,260.248627 77.099922,257.134125 
	C83.786308,253.898193 84.974533,252.161652 84.997017,244.887924 
	C85.015594,238.876419 85.000809,232.864807 85.000809,226.006668 
	C98.132355,237.402786 112.190857,242.600113 128.523895,240.529907 
	C144.954926,238.447266 157.521835,229.983246 166.837692,216.462601 
	C175.603683,225.555466 176.521927,225.875427 183.288086,222.515564 
	C185.438599,224.053406 187.290268,225.399948 189.065842,227.186203 
	C187.979309,232.557861 189.524780,236.235123 194.435776,237.946350 
	C209.998993,243.369385 225.140259,242.031082 238.963715,233.249115 
	C245.815872,228.895996 251.473358,222.662384 257.802063,217.165985 
	C268.275330,232.065323 282.998505,240.865906 301.990143,240.891037 
	C321.126221,240.916351 335.995392,232.072845 347.093140,216.116943 
	C356.663086,230.057785 369.211517,238.313995 385.473907,240.508667 
	C401.945221,242.731537 416.072632,237.228928 428.999207,226.272018 
	C428.999207,249.809097 429.113831,272.456726 428.925568,295.101868 
	C428.872772,301.452667 430.711029,306.049316 437.119598,308.036652 
	C437.083649,309.085083 437.047668,310.133545 436.816467,311.843170 
	C430.557739,314.319702 429.010406,316.608795 429.007080,324.057495 
	C428.992126,357.525452 429.013062,390.993439 428.990845,424.461395 
	C428.985443,432.595642 424.175781,439.696808 416.938843,440.592224 
	C410.460144,441.393829 403.803955,440.760925 396.999481,440.760925 
	C396.999481,438.453094 396.999512,436.636139 396.999512,434.819214 
	C396.999512,385.866089 397.012115,336.912933 396.992432,287.959808 
	C396.985748,271.327209 387.585358,261.298523 370.884888,261.087280 
	C345.579834,260.767120 320.264709,260.767609 294.959778,261.092743 
	C279.760620,261.288055 270.436005,269.798035 269.293579,284.779816 
	C268.460419,295.705383 268.905823,306.744843 269.124969,317.726685 
	C269.221680,322.574677 271.915314,325.794891 277.033081,326.769897 
	C277.026154,328.585327 277.042847,330.037567 276.686646,331.612671 
	C270.611206,333.341858 269.012268,335.724915 269.008148,342.937256 
	C268.990540,373.768250 269.000580,404.599213 269.000519,435.430206 
	C269.000519,437.191437 269.000519,438.952637 269.000519,441.000519 
	C266.345734,441.000519 264.367493,441.000519 262.389252,441.000519 
	C209.726578,441.000519 157.061096,440.705353 104.403229,441.208008 
	C91.234116,441.333710 84.721535,432.780670 84.818130,421.708557 
	C85.239723,373.382599 85.002777,325.050812 84.995888,276.721161 
	C84.994797,269.080139 83.805351,267.378876 76.934998,264.975525 
M148.879684,268.333191 
	C146.707550,262.436066 144.426468,260.966614 138.453445,261.616638 
	C127.585747,262.799316 118.490707,270.520569 117.909698,281.414886 
	C116.971115,299.013977 116.588310,316.730682 117.526131,334.314758 
	C118.315361,349.112793 128.390991,356.987915 143.333679,356.997437 
	C164.832062,357.011078 186.330612,357.050049 207.828796,356.983704 
	C222.404099,356.938751 232.612335,347.328247 232.916763,332.811432 
	C233.248627,316.986267 233.236435,301.143860 232.915604,285.318237 
	C232.651962,272.313812 224.436493,262.652557 211.644623,261.824188 
	C195.551651,260.782074 179.361053,261.082916 163.213882,261.145203 
	C158.487854,261.163422 154.956497,263.653412 153.717346,268.971069 
	C152.189438,268.987061 150.661545,269.003021 148.879684,268.333191 
z"/>
<path fill="#324967" opacity="1.000000" stroke="none" 
	d="
M437.480377,307.990692 
	C430.711029,306.049316 428.872772,301.452667 428.925568,295.101868 
	C429.113831,272.456726 428.999207,249.809097 428.999207,226.272018 
	C416.072632,237.228928 401.945221,242.731537 385.473907,240.508667 
	C369.211517,238.313995 356.663086,230.057785 347.093140,216.116943 
	C335.995392,232.072845 321.126221,240.916351 301.990143,240.891037 
	C282.998505,240.865906 268.275330,232.065323 257.802063,217.165985 
	C251.473358,222.662384 245.815872,228.895996 238.963715,233.249115 
	C225.140259,242.031082 209.998993,243.369385 194.435776,237.946350 
	C189.524780,236.235123 187.979309,232.557861 189.330719,226.992508 
	C192.829361,221.629593 197.102875,222.438904 201.671051,223.721802 
	C221.152100,229.192795 241.633621,218.988434 246.905991,199.724960 
	C249.545883,190.079681 248.899857,179.535065 249.740112,169.395325 
	C223.932343,169.395325 199.579788,169.395325 174.977753,169.395325 
	C174.977753,173.770966 175.116684,177.760315 174.951126,181.736969 
	C174.496246,192.663086 176.112793,202.926086 183.306763,211.758423 
	C186.089478,215.174866 185.522537,218.872818 182.989243,222.324265 
	C176.521927,225.875427 175.603683,225.555466 166.837692,216.462601 
	C157.521835,229.983246 144.954926,238.447266 128.523895,240.529907 
	C112.190857,242.600113 98.132355,237.402786 85.000809,226.006668 
	C85.000809,232.864807 85.015594,238.876419 84.997017,244.887924 
	C84.974533,252.161652 83.786308,253.898193 77.030479,256.696442 
	C69.003479,253.721588 69.002205,253.721588 69.001907,244.895523 
	C69.001152,222.402039 69.612823,199.885818 68.776436,177.423477 
	C68.260178,163.558823 71.461960,150.928024 76.338577,138.314133 
	C84.028648,118.422935 91.497452,98.445808 98.992889,78.479889 
	C104.028954,65.065094 115.477676,57.004574 129.744720,57.002792 
	C154.904099,56.999657 180.064987,57.149315 205.221695,56.889999 
	C210.954361,56.830902 214.424728,58.623821 215.578812,64.754288 
	C213.185089,71.774162 211.505722,72.961792 204.463882,72.998444 
	C201.464035,73.014053 198.454285,73.152283 195.466965,72.958366 
	C192.642151,72.774994 191.454071,73.635529 190.917770,76.657204 
	C187.777344,94.351028 184.361710,111.995972 181.049973,129.659470 
	C179.623703,137.266556 178.223969,144.878601 176.779785,152.663025 
	C201.183243,152.663025 224.917526,152.663025 248.583664,152.663025 
	C248.583664,125.945511 248.583664,99.565979 248.583664,73.001114 
	C244.007629,73.001114 239.845963,73.002350 235.684296,73.000854 
	C227.061600,72.997765 226.050873,72.356506 222.910339,64.904182 
	C224.194000,58.851463 226.307190,57.033890 232.325623,57.012394 
	C242.469315,56.976158 252.623413,57.274956 262.753082,56.896175 
	C268.546387,56.679550 272.434357,58.317326 273.711731,64.734650 
	C272.591705,69.901825 269.689880,72.495575 265.394104,73.284470 
	C265.394104,99.973618 265.394104,126.371315 265.394104,152.621063 
	C289.511993,152.621063 313.234985,152.621063 337.444580,152.621063 
	C332.433655,125.894417 327.507935,99.622192 322.516785,73.001060 
	C312.835999,73.001060 303.518402,72.666321 294.238495,73.113686 
	C287.574799,73.434929 282.930115,71.576309 280.931244,64.880669 
	C283.695618,57.409378 284.259247,57.003464 292.038513,57.002792 
	C322.357971,57.000168 352.679749,57.225491 382.995880,56.909161 
	C398.596588,56.746376 410.251678,64.812798 415.868317,79.956932 
	C425.352295,105.528694 434.829865,131.102966 444.200043,156.716492 
	C444.912598,158.664246 444.965118,160.930984 444.967041,163.049789 
	C445.008301,208.029144 444.904022,253.009018 445.116516,297.987427 
	C445.143311,303.666168 443.188538,306.754730 437.480377,307.990692 
M162.479004,72.999512 
	C152.652939,72.999565 142.826813,72.981201 133.000809,73.004601 
	C122.164627,73.030411 117.336128,76.369896 113.496918,86.571266 
	C106.936813,104.002403 100.421402,121.450356 93.889595,138.892136 
	C92.212448,143.370560 90.544174,147.852295 88.622498,153.000458 
	C91.909676,153.000458 94.518349,152.916962 97.119682,153.019562 
	C101.259010,153.182831 105.459473,153.095154 109.511711,153.808609 
	C113.707870,154.547394 115.517303,157.700302 115.201187,161.922607 
	C114.892494,166.045715 112.297928,168.184433 108.496017,168.826462 
	C106.386398,169.182709 104.179237,168.988098 102.015907,168.994232 
	C96.426018,169.010086 90.836044,168.999542 85.044022,168.999542 
	C85.044022,176.223114 84.762413,182.716858 85.100533,189.178146 
	C85.892242,204.307434 93.212540,215.525940 106.940018,221.781937 
	C120.323029,227.880905 133.323975,226.055038 144.997375,217.078766 
	C161.310349,204.534943 159.529724,186.798172 158.655258,168.999222 
	C148.287888,168.999222 138.312424,169.026062 128.337189,168.989548 
	C121.964539,168.966217 118.202042,165.977280 118.255867,161.103485 
	C118.308334,156.352707 122.181900,153.130341 128.379623,153.033264 
	C136.371704,152.908096 144.367218,153.001236 152.361252,153.000488 
	C155.112137,153.000244 157.863022,153.000458 160.577911,153.000458 
	C165.638428,125.963440 170.550262,99.720688 175.551651,72.999512 
	C171.078934,72.999512 167.273514,72.999512 162.479004,72.999512 
M308.791138,224.659714 
	C324.445038,220.837830 334.521637,211.311798 338.324799,195.527298 
	C339.058624,192.481567 339.024658,189.255188 339.695374,186.188797 
	C340.510712,182.461197 343.216644,180.508118 346.912415,180.466949 
	C350.820618,180.423401 353.572754,182.413803 354.531555,186.354660 
	C354.881378,187.792618 354.971680,189.306610 355.061127,190.793076 
	C356.601807,216.397446 385.034027,233.038147 407.913055,221.451263 
	C429.941895,210.294907 430.756927,191.469345 428.140930,169.002548 
	C404.679199,169.002548 381.195648,168.956055 357.713654,169.125351 
	C356.392883,169.134857 354.752502,170.675049 353.829742,171.923325 
	C350.240387,176.779007 343.496765,177.044434 340.516205,171.799927 
	C339.014771,169.158051 337.334381,168.980713 334.952179,168.983688 
	C313.130646,169.010925 291.309113,168.993942 269.487549,169.013229 
	C268.061676,169.014496 266.636017,169.207993 265.283295,169.306732 
	C262.328735,207.741074 276.998901,226.657990 308.791138,224.659714 
M411.945679,116.543335 
	C408.209015,106.580597 404.474731,96.616966 400.735016,86.655373 
	C396.902954,76.447952 392.068726,73.030907 381.291199,73.006866 
	C368.805328,72.979019 356.319336,73.000320 343.833405,73.000290 
	C342.261688,73.000282 340.690002,73.000290 338.613770,73.000290 
	C343.632385,100.078499 348.499725,126.340599 353.382324,152.684860 
	C377.453796,152.684860 401.134827,152.684860 425.485413,152.684860 
	C420.931976,140.555725 416.563049,128.918060 411.945679,116.543335 
z"/>
<path fill="#314967" opacity="1.000000" stroke="none" 
	d="
M277.056671,326.406738 
	C271.915314,325.794891 269.221680,322.574677 269.124969,317.726685 
	C268.905823,306.744843 268.460419,295.705383 269.293579,284.779816 
	C270.436005,269.798035 279.760620,261.288055 294.959778,261.092743 
	C320.264709,260.767609 345.579834,260.767120 370.884888,261.087280 
	C387.585358,261.298523 396.985748,271.327209 396.992432,287.959808 
	C397.012115,336.912933 396.999512,385.866089 396.999512,434.819214 
	C396.999512,436.636139 396.999481,438.453094 396.999481,440.760925 
	C403.803955,440.760925 410.460144,441.393829 416.938843,440.592224 
	C424.175781,439.696808 428.985443,432.595642 428.990845,424.461395 
	C429.013062,390.993439 428.992126,357.525452 429.007080,324.057495 
	C429.010406,316.608795 430.557739,314.319702 436.864868,312.234253 
	C443.419586,313.206146 444.994690,315.029327 444.995880,321.214264 
	C445.002533,356.702972 445.014404,392.191681 444.991730,427.680389 
	C444.981964,442.979218 431.028687,456.988556 415.769257,456.990753 
	C309.969604,457.005951 204.169952,457.004517 98.370300,456.992523 
	C83.381241,456.990814 69.015839,442.685547 69.009560,427.741730 
	C68.987999,376.424744 68.997444,325.107727 69.006332,273.790741 
	C69.007286,268.263763 70.933090,265.943085 76.552170,264.986206 
	C83.805351,267.378876 84.994797,269.080139 84.995888,276.721161 
	C85.002777,325.050812 85.239723,373.382599 84.818130,421.708557 
	C84.721535,432.780670 91.234116,441.333710 104.403229,441.208008 
	C157.061096,440.705353 209.726578,441.000519 262.389252,441.000519 
	C264.367493,441.000519 266.345734,441.000519 269.000519,441.000519 
	C269.000519,438.952637 269.000519,437.191437 269.000519,435.430206 
	C269.000580,404.599213 268.990540,373.768250 269.008148,342.937256 
	C269.012268,335.724915 270.611206,333.341858 277.051361,331.729858 
	C283.530609,333.324036 284.989166,335.421936 284.992950,342.404114 
	C285.009735,373.386505 285.000336,404.368866 285.000366,435.351257 
	C285.000366,437.116699 285.000366,438.882141 285.000366,440.610107 
	C317.361206,440.610107 349.061646,440.610107 380.803375,440.610107 
	C380.887512,439.570435 380.986969,438.914398 380.987091,438.258331 
	C380.995636,387.620453 381.012482,336.982605 380.977997,286.344727 
	C380.973511,279.729736 378.032898,277.034454 370.838867,277.020477 
	C345.686584,276.971649 320.534149,276.975708 295.381836,277.016968 
	C287.918365,277.029205 285.053314,279.890533 285.014008,287.241974 
	C284.961456,297.069458 285.066467,306.898041 284.973724,316.724915 
	C284.917450,322.689392 282.974854,324.921967 277.056671,326.406738 
z"/>
<path fill="#F8991D" opacity="1.000000" stroke="none" 
	d="
M280.504211,64.931595 
	C282.930115,71.576309 287.574799,73.434929 294.238495,73.113686 
	C303.518402,72.666321 312.835999,73.001060 322.516785,73.001060 
	C327.507935,99.622192 332.433655,125.894417 337.444580,152.621063 
	C313.234985,152.621063 289.511993,152.621063 265.394104,152.621063 
	C265.394104,126.371315 265.394104,99.973618 265.394104,73.284470 
	C269.689880,72.495575 272.591705,69.901825 273.766235,65.087875 
	C276.065002,64.909515 278.071075,64.946022 280.504211,64.931595 
z"/>
<path fill="#F8991D" opacity="1.000000" stroke="none" 
	d="
M222.483795,64.945053 
	C226.050873,72.356506 227.061600,72.997765 235.684296,73.000854 
	C239.845963,73.002350 244.007629,73.001114 248.583664,73.001114 
	C248.583664,99.565979 248.583664,125.945511 248.583664,152.663025 
	C224.917526,152.663025 201.183243,152.663025 176.779785,152.663025 
	C178.223969,144.878601 179.623703,137.266556 181.049973,129.659470 
	C184.361710,111.995972 187.777344,94.351028 190.917770,76.657204 
	C191.454071,73.635529 192.642151,72.774994 195.466965,72.958366 
	C198.454285,73.152283 201.464035,73.014053 204.463882,72.998444 
	C211.505722,72.961792 213.185089,71.774162 215.746780,65.066528 
	C218.051117,64.903648 220.054184,64.944786 222.483795,64.945053 
z"/>
<path fill="#F8991D" opacity="1.000000" stroke="none" 
	d="
M277.033081,326.769897 
	C282.974854,324.921967 284.917450,322.689392 284.973724,316.724915 
	C285.066467,306.898041 284.961456,297.069458 285.014008,287.241974 
	C285.053314,279.890533 287.918365,277.029205 295.381836,277.016968 
	C320.534149,276.975708 345.686584,276.971649 370.838867,277.020477 
	C378.032898,277.034454 380.973511,279.729736 380.977997,286.344727 
	C381.012482,336.982605 380.995636,387.620453 380.987091,438.258331 
	C380.986969,438.914398 380.887512,439.570435 380.803375,440.610107 
	C349.061646,440.610107 317.361206,440.610107 285.000366,440.610107 
	C285.000366,438.882141 285.000366,437.116699 285.000366,435.351257 
	C285.000336,404.368866 285.009735,373.386505 284.992950,342.404114 
	C284.989166,335.421936 283.530609,333.324036 277.424225,331.606995 
	C277.042847,330.037567 277.026154,328.585327 277.033081,326.769897 
z"/>
<path fill="#5BC9E1" opacity="1.000000" stroke="none" 
	d="
M149.133636,269.018982 
	C150.661545,269.003021 152.189438,268.987061 154.156845,269.368835 
	C156.121796,275.381317 158.132355,276.967255 164.192810,276.986298 
	C178.512314,277.031250 192.832443,276.938385 207.151489,277.031616 
	C214.074417,277.076691 216.964035,279.990356 216.983932,286.706146 
	C217.028320,301.691681 217.033478,316.677582 216.980515,331.663055 
	C216.957611,338.143158 214.274185,340.960815 208.012619,340.976257 
	C186.033768,341.030487 164.054657,341.026459 142.075790,340.978394 
	C136.075226,340.965271 133.086624,338.122955 133.045044,332.157227 
	C132.938309,316.839294 132.957535,301.519897 133.036118,286.201660 
	C133.063080,280.948181 135.380798,277.955353 140.489822,277.207855 
	C145.524796,276.471222 148.269928,273.879791 149.133636,269.018982 
z"/>
<path fill="#324A67" opacity="1.000000" stroke="none" 
	d="
M149.006653,268.676086 
	C148.269928,273.879791 145.524796,276.471222 140.489822,277.207855 
	C135.380798,277.955353 133.063080,280.948181 133.036118,286.201660 
	C132.957535,301.519897 132.938309,316.839294 133.045044,332.157227 
	C133.086624,338.122955 136.075226,340.965271 142.075790,340.978394 
	C164.054657,341.026459 186.033768,341.030487 208.012619,340.976257 
	C214.274185,340.960815 216.957611,338.143158 216.980515,331.663055 
	C217.033478,316.677582 217.028320,301.691681 216.983932,286.706146 
	C216.964035,279.990356 214.074417,277.076691 207.151489,277.031616 
	C192.832443,276.938385 178.512314,277.031250 164.192810,276.986298 
	C158.132355,276.967255 156.121796,275.381317 154.537689,269.372192 
	C154.956497,263.653412 158.487854,261.163422 163.213882,261.145203 
	C179.361053,261.082916 195.551651,260.782074 211.644623,261.824188 
	C224.436493,262.652557 232.651962,272.313812 232.915604,285.318237 
	C233.236435,301.143860 233.248627,316.986267 232.916763,332.811432 
	C232.612335,347.328247 222.404099,356.938751 207.828796,356.983704 
	C186.330612,357.050049 164.832062,357.011078 143.333679,356.997437 
	C128.390991,356.987915 118.315361,349.112793 117.526131,334.314758 
	C116.588310,316.730682 116.971115,299.013977 117.909698,281.414886 
	C118.490707,270.520569 127.585747,262.799316 138.453445,261.616638 
	C144.426468,260.966614 146.707550,262.436066 149.006653,268.676086 
z"/>
<path fill="#F7991E" opacity="1.000000" stroke="none" 
	d="
M183.288086,222.515564 
	C185.522537,218.872818 186.089478,215.174866 183.306763,211.758423 
	C176.112793,202.926086 174.496246,192.663086 174.951126,181.736969 
	C175.116684,177.760315 174.977753,173.770966 174.977753,169.395325 
	C199.579788,169.395325 223.932343,169.395325 249.740112,169.395325 
	C248.899857,179.535065 249.545883,190.079681 246.905991,199.724960 
	C241.633621,218.988434 221.152100,229.192795 201.671051,223.721802 
	C197.102875,222.438904 192.829361,221.629593 189.406799,226.552811 
	C187.290268,225.399948 185.438599,224.053406 183.288086,222.515564 
z"/>
<path fill="#F7981E" opacity="1.000000" stroke="none" 
	d="
M162.973557,72.999512 
	C167.273514,72.999512 171.078934,72.999512 175.551651,72.999512 
	C170.550262,99.720688 165.638428,125.963440 160.577911,153.000458 
	C157.863022,153.000458 155.112137,153.000244 152.361252,153.000488 
	C144.367218,153.001236 136.371704,152.908096 128.379623,153.033264 
	C122.181900,153.130341 118.308334,156.352707 118.255867,161.103485 
	C118.202042,165.977280 121.964539,168.966217 128.337189,168.989548 
	C138.312424,169.026062 148.287888,168.999222 158.655258,168.999222 
	C159.529724,186.798172 161.310349,204.534943 144.997375,217.078766 
	C133.323975,226.055038 120.323029,227.880905 106.940018,221.781937 
	C93.212540,215.525940 85.892242,204.307434 85.100533,189.178146 
	C84.762413,182.716858 85.044022,176.223114 85.044022,168.999542 
	C90.836044,168.999542 96.426018,169.010086 102.015907,168.994232 
	C104.179237,168.988098 106.386398,169.182709 108.496017,168.826462 
	C112.297928,168.184433 114.892494,166.045715 115.201187,161.922607 
	C115.517303,157.700302 113.707870,154.547394 109.511711,153.808609 
	C105.459473,153.095154 101.259010,153.182831 97.119682,153.019562 
	C94.518349,152.916962 91.909676,153.000458 88.622498,153.000458 
	C90.544174,147.852295 92.212448,143.370560 93.889595,138.892136 
	C100.421402,121.450356 106.936813,104.002403 113.496918,86.571266 
	C117.336128,76.369896 122.164627,73.030411 133.000809,73.004601 
	C142.826813,72.981201 152.652939,72.999565 162.973557,72.999512 
z"/>
<path fill="#F7981E" opacity="1.000000" stroke="none" 
	d="
M308.357361,224.732010 
	C276.998901,226.657990 262.328735,207.741074 265.283295,169.306732 
	C266.636017,169.207993 268.061676,169.014496 269.487549,169.013229 
	C291.309113,168.993942 313.130646,169.010925 334.952179,168.983688 
	C337.334381,168.980713 339.014771,169.158051 340.516205,171.799927 
	C343.496765,177.044434 350.240387,176.779007 353.829742,171.923325 
	C354.752502,170.675049 356.392883,169.134857 357.713654,169.125351 
	C381.195648,168.956055 404.679199,169.002548 428.140930,169.002548 
	C430.756927,191.469345 429.941895,210.294907 407.913055,221.451263 
	C385.034027,233.038147 356.601807,216.397446 355.061127,190.793076 
	C354.971680,189.306610 354.881378,187.792618 354.531555,186.354660 
	C353.572754,182.413803 350.820618,180.423401 346.912415,180.466949 
	C343.216644,180.508118 340.510712,182.461197 339.695374,186.188797 
	C339.024658,189.255188 339.058624,192.481567 338.324799,195.527298 
	C334.521637,211.311798 324.445038,220.837830 308.357361,224.732010 
z"/>
<path fill="#F7991E" opacity="1.000000" stroke="none" 
	d="
M412.069885,116.911865 
	C416.563049,128.918060 420.931976,140.555725 425.485413,152.684860 
	C401.134827,152.684860 377.453796,152.684860 353.382324,152.684860 
	C348.499725,126.340599 343.632385,100.078499 338.613770,73.000290 
	C340.690002,73.000290 342.261688,73.000282 343.833405,73.000290 
	C356.319336,73.000320 368.805328,72.979019 381.291199,73.006866 
	C392.068726,73.030907 396.902954,76.447952 400.735016,86.655373 
	C404.474731,96.616966 408.209015,106.580597 412.069885,116.911865 
z"/>
</svg>