<?xml version="1.0" standalone="no"?>
<!DOCTYPE svg PUBLIC "-//W3C//DTD SVG 20010904//EN"
 "http://www.w3.org/TR/2001/REC-SVG-20010904/DTD/svg10.dtd">
<svg version="1.0" xmlns="http://www.w3.org/2000/svg"
 width="360.000000pt" height="360.000000pt" viewBox="0 0 360.000000 360.000000"
 preserveAspectRatio="xMidYMid meet">

<g transform="translate(0.000000,360.000000) scale(0.100000,-0.100000)"
fill="#000000" stroke="none">
<path d="M118 3590 c-2 -6 101 -115 229 -243 128 -127 233 -236 233 -242 0
-12 -52 -65 -63 -65 -4 0 -111 104 -238 231 -204 204 -229 232 -217 247 12 16
11 16 -7 2 -62 -47 -82 -18 253 -350 169 -168 279 -276 244 -240 l-62 65 57
58 58 57 70 -67 c38 -37 -69 73 -240 245 -170 171 -311 312 -312 312 -1 0 -3
-5 -5 -10z"/>
<path d="M1138 3053 c23 -2 59 -2 80 0 20 2 1 4 -43 4 -44 0 -61 -2 -37 -4z"/>
<path d="M1058 3043 c7 -3 16 -2 19 1 4 3 -2 6 -13 5 -11 0 -14 -3 -6 -6z"/>
<path d="M1278 3043 c7 -3 16 -2 19 1 4 3 -2 6 -13 5 -11 0 -14 -3 -6 -6z"/>
<path d="M900 3000 c-8 -5 -10 -10 -5 -10 6 0 17 5 25 10 8 5 11 10 5 10 -5 0
-17 -5 -25 -10z"/>
<path d="M1401 3006 c2 -2 15 -9 29 -15 24 -11 24 -11 6 3 -16 13 -49 24 -35
12z"/>
<path d="M860 2980 c-9 -6 -10 -10 -3 -10 6 0 15 5 18 10 8 12 4 12 -15 0z"/>
<path d="M1460 2977 c0 -3 12 -12 26 -22 15 -9 23 -12 20 -6 -7 11 -46 35 -46
28z"/>
<path d="M793 2963 c9 -2 25 -2 35 0 9 3 1 5 -18 5 -19 0 -27 -2 -17 -5z"/>
<path d="M1532 2926 c15 -17 15 -21 1 -52 -16 -32 -16 -33 24 -81 22 -26 53
-67 68 -91 l29 -44 21 42 c11 22 25 37 30 33 5 -4 -6 13 -24 38 -17 25 -62 74
-99 110 -37 35 -59 56 -50 45z"/>
<path d="M616 2847 c3 -10 9 -15 12 -12 3 3 0 11 -7 18 -10 9 -11 8 -5 -6z"/>
<path d="M602 2715 c-30 -62 -27 -71 4 -12 14 27 24 51 22 53 -3 2 -14 -17
-26 -41z"/>
<path d="M1396 2644 c-110 -157 -287 -328 -456 -441 -106 -70 -127 -79 -45
-20 16 12 17 17 6 30 -8 11 -10 21 -3 33 8 15 11 14 25 -6 15 -22 16 -22 14
-2 0 11 -6 20 -12 19 -5 -1 -9 4 -7 11 1 6 -4 11 -10 10 -7 -2 -12 3 -10 10 1
6 -4 11 -10 10 -7 -2 -12 3 -10 10 1 6 -4 11 -10 10 -7 -2 -12 3 -10 10 2 10
-2 10 -17 0 -12 -7 -17 -18 -13 -27 6 -14 7 -14 10 2 2 9 8 15 13 11 6 -4 6
-11 -1 -19 -8 -9 -8 -15 0 -20 5 -3 10 1 10 10 0 9 5 13 10 10 8 -5 8 -11 0
-20 -7 -8 -7 -15 -1 -19 5 -4 11 2 13 11 2 12 6 14 10 7 4 -6 -2 -20 -13 -30
-11 -10 -19 -14 -17 -8 4 14 -48 75 -57 66 -4 -4 -5 0 -3 8 2 8 -3 14 -9 12
-18 -3 -16 3 4 19 14 12 16 12 8 0 -6 -10 -4 -12 5 -6 9 6 11 4 5 -6 -5 -8 1
-5 13 5 24 21 31 36 8 17 -11 -10 -17 -7 -30 10 -8 12 -13 26 -10 31 3 5 0 7
-8 6 -7 -2 -12 3 -10 10 1 6 -4 11 -10 10 -7 -2 -12 3 -10 10 1 6 -3 11 -10
10 -7 -2 -12 2 -13 9 0 6 -4 15 -8 20 -5 4 -7 3 -5 -3 1 -7 -1 -12 -7 -13 -5
-1 -10 8 -10 18 0 11 -4 23 -8 28 -5 4 -7 3 -5 -4 2 -6 -1 -10 -7 -9 -5 0 -9
9 -9 18 1 9 -3 16 -9 15 -6 -1 -11 3 -12 10 0 23 -11 22 -11 -2 0 -13 4 -21
10 -18 5 3 6 1 3 -4 -6 -10 25 -46 34 -41 2 2 3 1 2 -1 -2 -2 2 -10 8 -17 6
-7 8 -18 4 -24 -9 -15 -47 19 -41 37 6 13 -10 28 -17 16 -2 -5 -2 -3 -1 4 2 7
-1 15 -6 18 -6 4 -11 25 -11 48 -1 40 -2 40 -9 12 -13 -53 -11 -179 5 -240 20
-76 68 -171 84 -167 7 1 9 -2 6 -8 -4 -6 1 -20 11 -31 13 -15 19 -16 26 -7 6
10 8 10 8 0 0 -7 -14 -21 -32 -32 -30 -18 -33 -18 -52 -2 -11 9 -5 -3 14 -26
43 -56 151 -147 159 -134 3 6 24 13 46 17 22 4 47 13 55 19 13 9 13 9 2 -6
-12 -16 -3 -22 100 -71 l113 -53 33 19 c18 11 31 25 28 32 -2 7 -1 16 4 21 14
15 20 64 7 61 -6 -1 -11 3 -12 10 0 6 -4 15 -8 20 -5 4 -7 4 -5 -2 2 -5 -1
-10 -7 -10 -5 0 -9 8 -9 17 1 10 -2 15 -6 13 -11 -7 -31 20 -22 31 4 4 -2 2
-12 -6 -18 -13 -19 -13 -14 2 5 11 2 15 -10 13 -9 -2 -21 -4 -25 -4 -5 -1 -6
-5 -2 -10 3 -5 0 -13 -6 -17 -8 -4 -9 -3 -5 4 10 17 0 15 -32 -5 -41 -25 -17
-4 78 69 126 97 222 189 314 302 96 119 136 172 136 182 0 8 -63 91 -107 141
l-28 31 -59 -84z m-606 -275 c6 -10 3 -19 -11 -27 -15 -10 -19 -10 -17 0 2 7
-3 12 -10 10 -8 -1 -11 2 -8 6 3 5 -3 17 -13 26 -12 11 -17 25 -14 37 5 19 7
19 35 -8 16 -15 34 -35 38 -44z m360 -370 c0 11 5 10 20 -4 11 -10 17 -21 15
-26 -3 -4 0 -11 6 -14 5 -4 8 -13 5 -20 -3 -8 2 -19 10 -26 13 -11 14 -9 8 17
-7 26 -6 28 9 15 13 -10 14 -18 6 -33 -10 -18 -12 -19 -29 -3 -11 10 -16 24
-12 33 5 15 4 16 -14 2 -17 -14 -18 -13 -7 1 13 16 8 29 -9 29 -5 0 -6 -6 -2
-12 4 -7 4 -10 0 -6 -4 3 -8 10 -8 15 0 4 -7 17 -14 28 -8 11 -14 24 -14 30 1
5 7 -1 15 -15 8 -14 14 -19 15 -11z"/>
<path d="M728 2414 c-4 -6 6 -24 22 -39 24 -23 30 -25 30 -11 0 9 -4 14 -10
11 -5 -3 -10 1 -10 10 0 9 -4 14 -9 10 -5 -3 -11 3 -13 12 -2 11 -6 14 -10 7z"/>
<path d="M1150 1986 c0 -2 7 -7 16 -10 8 -3 12 -2 9 4 -6 10 -25 14 -25 6z"/>
<path d="M1720 2700 c6 -11 13 -20 16 -20 2 0 0 9 -6 20 -6 11 -13 20 -16 20
-2 0 0 -9 6 -20z"/>
<path d="M1757 2635 c9 -19 18 -33 21 -31 4 5 -26 66 -33 66 -3 0 3 -16 12
-35z"/>
<path d="M566 2635 c-9 -26 -7 -32 5 -12 6 10 9 21 6 23 -2 3 -7 -2 -11 -11z"/>
<path d="M551 2574 c0 -11 3 -14 6 -6 3 7 2 16 -1 19 -3 4 -6 -2 -5 -13z"/>
<path d="M1780 2585 c0 -5 5 -17 10 -25 5 -8 10 -10 10 -5 0 6 -5 17 -10 25
-5 8 -10 11 -10 5z"/>
<path d="M541 2534 c0 -11 3 -14 6 -6 3 7 2 16 -1 19 -3 4 -6 -2 -5 -13z"/>
<path d="M1816 2488 c8 -35 -34 -114 -122 -231 -115 -154 -258 -285 -425 -389
-48 -30 -99 -64 -115 -75 l-28 -21 32 -16 c18 -9 94 -76 170 -148 80 -77 100
-94 49 -42 l-89 91 33 13 32 14 92 -98 93 -97 -34 -17 -34 -17 147 -145 c82
-80 117 -113 78 -73 -38 40 -66 75 -63 79 10 9 78 23 73 14 -2 -4 21 -37 53
-73 62 -69 65 -75 108 -182 15 -38 40 -93 56 -121 34 -61 34 -61 6 -67 -15 -3
-10 -5 13 -6 81 -3 252 74 382 173 85 64 224 203 268 266 27 40 27 41 2 10
-53 -66 -158 -172 -225 -227 -78 -63 -221 -148 -226 -133 -2 6 -7 8 -12 5 -4
-3 -3 6 3 19 7 13 15 22 20 19 4 -3 3 -11 -4 -19 -8 -10 -8 -14 0 -14 6 0 11
5 11 11 0 5 4 8 8 5 5 -3 9 1 9 9 0 8 -5 13 -11 12 -6 -1 -10 4 -9 10 2 7 -3
12 -10 10 -6 -1 -11 4 -10 10 2 7 -3 12 -10 10 -6 -1 -11 4 -10 10 2 7 -3 12
-10 10 -6 -1 -11 4 -10 10 2 7 -3 12 -10 10 -6 -1 -11 4 -10 10 2 7 -3 12 -10
10 -6 -1 -11 4 -10 10 2 7 -3 12 -10 10 -6 -1 -11 4 -10 10 2 7 -3 12 -10 10
-6 -1 -11 4 -10 10 2 7 -3 12 -10 10 -6 -1 -11 4 -10 10 2 7 -2 12 -9 10 -7
-1 -12 3 -13 10 0 6 -4 15 -9 20 -5 4 -6 3 -2 -4 3 -6 2 -14 -4 -18 -10 -6
-13 3 -13 37 0 10 -3 15 -8 13 -8 -5 -6 -18 6 -61 4 -12 2 -25 -4 -28 -6 -4
-9 -1 -6 7 8 18 -23 89 -36 82 -6 -4 -8 3 -5 19 3 16 0 25 -7 23 -7 -1 -11 4
-10 10 2 7 -3 12 -10 10 -6 -1 -11 4 -10 10 2 7 -2 12 -9 10 -7 -1 -12 3 -13
10 0 6 -4 15 -8 20 -5 4 -7 3 -5 -2 2 -6 -1 -10 -7 -10 -5 0 -9 3 -8 6 1 3 -5
6 -13 6 -12 0 -12 -3 1 -17 17 -19 19 -36 5 -45 -5 -3 -7 0 -4 9 9 25 -5 39
-24 24 -16 -12 -16 -11 -2 6 14 18 13 19 -5 12 -48 -19 -46 -16 16 21 229 138
364 282 464 495 l50 107 65 -62 c36 -34 -64 69 -222 228 -157 160 -296 308
-307 330 -16 30 -20 33 -15 13z m314 -410 c-28 -113 -175 -307 -313 -416 -89
-70 -183 -125 -198 -116 -7 4 -10 3 -6 -3 3 -5 -9 -17 -27 -25 -26 -13 -33
-14 -33 -2 0 7 4 11 9 8 4 -3 15 2 24 10 19 20 27 56 11 53 -7 -1 -11 4 -9 11
1 8 -2 11 -8 7 -8 -5 -7 -11 1 -21 9 -11 8 -14 -2 -14 -12 0 -12 -2 -1 -9 11
-7 11 -9 -2 -14 -9 -4 -15 -1 -13 6 1 7 -4 11 -12 9 -11 -2 -12 0 -4 10 5 7
13 22 17 33 5 14 0 11 -17 -9 -14 -17 -24 -23 -24 -15 0 8 -4 27 -8 43 -6 21
-5 27 4 22 6 -4 10 -10 7 -14 -2 -4 -1 -15 3 -24 5 -15 8 -13 18 7 6 14 8 23
3 20 -11 -7 -31 20 -22 31 4 4 -1 2 -11 -5 -16 -13 -18 -12 -13 13 3 14 1 24
-3 22 -10 -6 -8 -67 3 -84 12 -19 1 -14 -20 10 -10 12 -13 18 -5 13 11 -6 13
-4 8 9 -4 10 -7 23 -7 30 0 7 -7 21 -15 32 -11 14 -14 15 -9 3 3 -10 0 -20 -5
-24 -6 -3 -9 -11 -6 -16 10 -15 -1 -10 -15 7 -8 8 -9 14 -4 13 18 -3 25 1 19
11 -4 6 -17 4 -36 -6 -17 -8 -33 -13 -36 -10 -3 2 15 14 39 27 194 98 383 291
486 497 l56 113 95 -95 95 -95 -14 -53z m-668 -430 c-6 -6 -7 0 -4 19 5 21 7
23 10 9 2 -10 0 -22 -6 -28z m423 -397 c1 -17 -1 -28 -4 -25 -6 5 -7 9 -10 35
0 5 -6 7 -11 4 -6 -4 -7 -11 -4 -17 5 -7 2 -8 -5 -3 -8 5 -9 11 -3 17 11 11 4
48 -9 48 -4 0 -6 -9 -4 -21 4 -17 2 -19 -11 -8 -9 8 -11 16 -5 22 5 5 7 17 4
26 -3 9 9 2 27 -16 22 -21 34 -42 35 -62z m28 -27 c1 -10 7 -26 12 -34 7 -12
6 -13 -6 -3 -8 6 -16 24 -17 39 -2 30 6 29 11 -2z m216 -217 c-10 -18 -11 -18
-35 4 -16 15 -21 26 -14 33 5 7 5 17 0 26 -8 13 -10 12 -10 -2 0 -9 -5 -20
-12 -24 -7 -4 -8 -3 -4 4 9 14 -3 62 -16 62 -5 0 -7 -4 -4 -8 3 -5 -1 -9 -9
-9 -10 0 -12 4 -5 12 5 6 5 16 0 25 -8 13 -10 12 -10 -2 0 -9 -5 -20 -12 -24
-7 -4 -8 -3 -4 4 8 13 -3 62 -14 62 -10 0 -8 -20 5 -40 5 -9 0 -7 -14 4 -13
12 -18 23 -12 29 5 5 7 17 4 26 -3 9 35 -24 85 -73 78 -77 89 -92 81 -109z
m-84 63 c3 -6 -1 -7 -9 -4 -18 7 -21 14 -7 14 6 0 13 -4 16 -10z m85 -114 c0
-2 -7 -7 -16 -10 -8 -3 -12 -2 -9 4 6 10 25 14 25 6z m-145 -46 c3 -5 -1 -10
-10 -10 -9 0 -13 5 -10 10 3 6 8 10 10 10 2 0 7 -4 10 -10z"/>
<path d="M2086 1041 c-3 -4 3 -16 13 -25 17 -15 19 -15 25 -1 3 9 2 13 -4 10
-6 -3 -10 1 -10 9 0 17 -15 22 -24 7z"/>
<path d="M670 2452 c0 -5 7 -15 15 -22 8 -7 15 -8 15 -2 0 5 -7 15 -15 22 -8
7 -15 8 -15 2z"/>
<path d="M541 2334 c0 -11 3 -14 6 -6 3 7 2 16 -1 19 -3 4 -6 -2 -5 -13z"/>
<path d="M551 2294 c0 -11 3 -14 6 -6 3 7 2 16 -1 19 -3 4 -6 -2 -5 -13z"/>
<path d="M900 2231 c0 -5 7 -15 17 -22 15 -13 15 -12 4 9 -12 23 -21 28 -21
13z"/>
<path d="M580 2214 c0 -6 7 -19 16 -30 14 -18 14 -18 3 6 -14 31 -19 36 -19
24z"/>
<path d="M630 2121 c5 -11 15 -23 21 -27 6 -3 3 5 -6 20 -20 30 -30 35 -15 7z"/>
<path d="M1248 1900 c-10 -17 -13 -32 -7 -35 5 -4 9 1 9 10 0 9 4 14 9 11 5
-3 15 2 22 12 13 16 13 16 -5 2 -18 -14 -18 -13 -12 8 10 30 4 28 -16 -8z"/>
<path d="M860 1896 c0 -3 9 -10 20 -16 11 -6 20 -8 20 -6 0 3 -9 10 -20 16
-11 6 -20 8 -20 6z"/>
<path d="M937 1849 c7 -7 15 -10 18 -7 3 3 -2 9 -12 12 -14 6 -15 5 -6 -5z"/>
<path d="M1050 1800 c8 -5 20 -10 25 -10 6 0 3 5 -5 10 -8 5 -19 10 -25 10 -5
0 -3 -5 5 -10z"/>
<path d="M2520 1800 c8 -5 20 -10 25 -10 6 0 3 5 -5 10 -8 5 -19 10 -25 10 -5
0 -3 -5 5 -10z"/>
<path d="M2660 1746 c0 -3 9 -10 20 -16 11 -6 20 -8 20 -6 0 3 -9 10 -20 16
-11 6 -20 8 -20 6z"/>
<path d="M2736 1695 c4 -9 9 -13 12 -11 3 3 12 0 20 -7 13 -9 14 -9 8 0 -4 7
-16 18 -26 23 -16 9 -18 8 -14 -5z"/>
<path d="M2790 1666 c0 -2 8 -10 18 -17 15 -13 16 -12 3 4 -13 16 -21 21 -21
13z"/>
<path d="M2731 1644 c0 -11 3 -14 6 -6 3 7 2 16 -1 19 -3 4 -6 -2 -5 -13z"/>
<path d="M2890 1553 c0 -9 3 -13 7 -10 3 4 13 1 22 -5 10 -8 9 -4 -3 10 -23
26 -26 27 -26 5z"/>
<path d="M2930 1516 c0 -2 8 -10 18 -17 15 -13 16 -12 3 4 -13 16 -21 21 -21
13z"/>
<path d="M2990 1430 c6 -11 13 -20 16 -20 2 0 0 9 -6 20 -6 11 -13 20 -16 20
-2 0 0 -9 6 -20z"/>
<path d="M2630 1390 c-6 -11 -8 -20 -6 -20 3 0 10 9 16 20 6 11 8 20 6 20 -3
0 -10 -9 -16 -20z"/>
<path d="M2816 1335 c-9 -26 -7 -32 5 -12 6 10 9 21 6 23 -2 3 -7 -2 -11 -11z"/>
<path d="M3051 1294 c0 -11 3 -14 6 -6 3 7 2 16 -1 19 -3 4 -6 -2 -5 -13z"/>
<path d="M2785 1270 c-9 -16 -13 -30 -11 -30 3 0 12 14 21 30 9 17 13 30 11
30 -3 0 -12 -13 -21 -30z"/>
<path d="M3063 1200 c0 -30 2 -43 4 -27 2 15 2 39 0 55 -2 15 -4 2 -4 -28z"/>
<path d="M2719 1163 c-13 -16 -12 -17 4 -4 16 13 21 21 13 21 -2 0 -10 -8 -17
-17z"/>
<path d="M1770 1135 c0 -5 5 -17 10 -25 5 -8 10 -10 10 -5 0 6 -5 17 -10 25
-5 8 -10 11 -10 5z"/>
<path d="M2647 1076 c-117 -131 -295 -242 -492 -307 -60 -20 -92 -35 -80 -37
11 -3 36 -18 55 -35 19 -17 64 -44 100 -60 55 -26 80 -31 170 -35 109 -4 171
6 205 33 19 15 19 16 -3 5 -13 -6 -30 -9 -38 -6 -9 3 -12 1 -9 -4 3 -6 1 -10
-4 -10 -10 0 -15 14 -12 33 0 4 -5 6 -11 5 -7 -2 -12 3 -10 10 1 6 -4 11 -10
10 -7 -2 -12 3 -10 10 1 6 -4 11 -10 10 -7 -2 -12 3 -10 10 1 6 -4 11 -10 10
-7 -2 -12 3 -10 10 1 6 -4 11 -10 10 -7 -2 -12 3 -10 10 1 6 -4 11 -10 10 -7
-2 -12 3 -10 10 1 6 -4 11 -10 10 -7 -2 -12 3 -10 10 1 6 -4 11 -10 10 -7 -2
-12 2 -11 8 1 6 -5 11 -12 11 -9 0 -11 -4 -6 -11 5 -7 1 -19 -12 -31 l-20 -20
11 21 c11 21 7 34 -9 34 -5 0 -6 -8 -3 -17 4 -13 3 -14 -3 -5 -6 7 -18 10 -29
6 -10 -3 10 11 46 31 142 82 267 183 341 276 46 58 31 47 -34 -25z m-118 -456
c0 -11 -2 -11 -6 -2 -4 10 -8 10 -21 0 -15 -11 -15 -11 -5 2 8 10 9 21 3 30
-8 13 -10 12 -10 -2 0 -9 -5 -20 -12 -24 -7 -4 -8 -3 -4 4 8 13 -3 62 -14 62
-10 0 -8 -20 5 -40 8 -13 6 -13 -8 -2 -9 8 -15 19 -14 25 1 7 -5 11 -13 9 -12
-3 -13 -1 -2 9 21 22 13 33 -10 13 -13 -10 -20 -15 -15 -10 10 12 -23 47 -37
39 -6 -3 -5 0 2 8 6 7 12 20 12 28 0 11 -4 10 -16 -5 -14 -18 -15 -18 -4 5 12
23 13 22 91 -55 43 -43 79 -85 78 -94z m-399 109 c0 -5 5 -7 12 -3 7 4 8 3 4
-5 -6 -9 -11 -9 -22 0 -17 14 -18 19 -4 19 6 0 10 -5 10 -11z"/>
<path d="M2388 754 c-4 -6 1 -19 12 -29 19 -17 20 -17 20 -1 0 9 -4 15 -9 11
-5 -3 -11 3 -13 12 -2 12 -6 14 -10 7z"/>
<path d="M3051 1084 c0 -11 3 -14 6 -6 3 7 2 16 -1 19 -3 4 -6 -2 -5 -13z"/>
<path d="M1810 1036 c0 -11 40 -86 45 -86 3 0 -4 19 -16 43 -23 45 -29 54 -29
43z"/>
<path d="M2996 925 c-9 -26 -7 -32 5 -12 6 10 9 21 6 23 -2 3 -7 -2 -11 -11z"/>
<path d="M1895 870 c9 -16 18 -30 21 -30 2 0 -2 14 -11 30 -9 17 -18 30 -21
30 -2 0 2 -13 11 -30z"/>
<path d="M2975 879 c-4 -6 -5 -12 -2 -15 2 -3 7 2 10 11 7 17 1 20 -8 4z"/>
<path d="M2013 865 c0 -8 4 -12 9 -9 5 3 6 10 3 15 -9 13 -12 11 -12 -6z"/>
<path d="M1996 842 c24 -43 81 -98 81 -78 0 8 -3 14 -6 13 -3 -1 -6 3 -6 8 0
6 3 9 6 8 3 -1 6 5 6 13 0 12 -3 12 -17 -1 -13 -11 -19 -12 -28 -3 -17 17 -15
33 2 19 10 -9 16 -8 26 4 7 8 9 15 5 15 -4 0 -1 8 6 18 11 15 11 15 -1 4 -8
-7 -15 -17 -15 -22 0 -6 -4 -9 -10 -7 -5 1 -9 7 -7 12 2 6 -2 4 -10 -3 -10
-10 -16 -8 -31 10 -18 22 -18 22 -1 -10z"/>
<path d="M1937 804 c26 -43 44 -65 83 -99 19 -16 27 -20 17 -8 -14 16 -15 22
-5 26 7 2 5 3 -4 2 -17 -3 -49 28 -91 85 -18 24 -18 24 0 -6z"/>
<path d="M2119 815 c-1 -3 -2 -11 -3 -17 -1 -7 -7 -12 -12 -11 -6 1 -11 -5
-11 -13 0 -12 3 -12 17 1 9 8 17 22 17 30 0 14 -6 21 -8 10z"/>
<path d="M2960 771 c0 -6 4 -13 10 -16 6 -3 7 1 4 9 -7 18 -14 21 -14 7z"/>
<path d="M3036 680 l62 -65 -59 -60 -59 -59 -68 64 c-37 36 70 -73 238 -242
l305 -308 37 37 c40 39 53 60 18 28 -20 -19 -24 -16 -254 214 l-234 233 36 40
36 39 233 -233 c157 -157 231 -238 228 -248 -5 -11 -1 -10 12 3 17 17 5 30
-287 320 -168 166 -277 273 -244 237z"/>
<path d="M2783 633 c9 -2 23 -2 30 0 6 3 -1 5 -18 5 -16 0 -22 -2 -12 -5z"/>
<path d="M2130 625 c0 -7 61 -37 66 -33 2 3 -12 12 -31 21 -19 9 -35 15 -35
12z"/>
<path d="M2308 553 c7 -3 16 -2 19 1 4 3 -2 6 -13 5 -11 0 -14 -3 -6 -6z"/>
<path d="M2538 553 c7 -3 16 -2 19 1 4 3 -2 6 -13 5 -11 0 -14 -3 -6 -6z"/>
<path d="M2388 543 c23 -2 61 -2 85 0 23 2 4 4 -43 4 -47 0 -66 -2 -42 -4z"/>
</g>
</svg>
